<svg width="58" height="58" viewBox="0 0 58 58" fill="none" xmlns="http://www.w3.org/2000/svg">
<path d="M22.25 39.7651C22.25 43.1625 19.5637 45.9166 16.25 45.9166C12.9363 45.9166 10.25 43.1625 10.25 39.7651M22.25 39.7651C22.25 36.3677 19.5637 33.6136 16.25 33.6136C12.9363 33.6136 10.25 36.3677 10.25 39.7651M22.25 39.7651H35.75M10.25 39.7651H7.25V13.0833C7.25 12.531 7.69772 12.0833 8.25 12.0833H35.75V39.7651M49.25 39.7651C49.25 43.1625 46.5637 45.9166 43.25 45.9166C39.9363 45.9166 37.25 43.1625 37.25 39.7651M49.25 39.7651C49.25 36.3677 46.5637 33.6136 43.25 33.6136C39.9363 33.6136 37.25 36.3677 37.25 39.7651M49.25 39.7651H50.75V27.462L43.25 19.7726H35.75V39.7651M37.25 39.7651H35.75" stroke="black" stroke-width="2" stroke-linecap="round" stroke-linejoin="round"/>
</svg>
